<svg xmlns="http://www.w3.org/2000/svg" width="844" height="400" viewBox="0 0 647560 306796" shape-rendering="geometricPrecision" text-rendering="geometricPrecision" image-rendering="optimizeQuality" fill-rule="evenodd" clip-rule="evenodd"><defs><style>.fil1{fill:#2e2e2e;fill-rule:nonzero}</style></defs><g id="Layer_x0020_1"><path d="M0 230097v1l1-1 132846 76699 132846-76698 1-1h-1V76699L132847 0 0 76699v153398zm135453-74442v76699l66423-38350v-76699l-66423 38350zm-5212 0v76699l-66423-38350v-76699l66423 38350zm2606-4514l-66423-38349 66423-38350 66423 38350-66423 38349z" fill="#1362e2"/><path class="fil1" d="M411683 76699h-15946v29883h-34490V76699h-15945v77956h15945v-33663h34490v33663h15946V76699zm116698 77956l-22088-30710c4252-2126 7599-5099 10040-8918s3662-8209 3662-13170c0-7559-2618-13642-7855-18249-5236-4606-11989-6909-20257-6909h-29292v77956h15945v-27521h11694l20197 27521h17954zm-49845-63901h13347c3623 0 6497 1024 8623 3071 2126 2048 3189 4725 3189 8032 0 3386-1044 6103-3130 8150-2087 2048-4981 3071-8682 3071h-13347V90754zm163826-15473l-32954 42286-32954-42286h-5197v79374h15946v-41695l19607 24686h5197l19607-24686v41695h15946V75281h-5198zM359568 179457h-14266v50621h14266c8590 0 15327-2378 20210-7133 4883-4756 7324-10840 7324-18255 0-7465-2428-13537-7286-18215-4857-4679-11607-7018-20248-7018zm0 3605c7312 0 13038 2019 17180 6059 4142 4039 6213 9229 6213 15569 0 6290-2071 11492-6213 15609-4142 4116-9868 6174-17180 6174h-10278v-43411h10278zm120874-3605l-15417 43181-16797-43948h-1534l-16797 43948-15339-43181h-4295l18714 51388h1611l16873-44255 16874 44255h1611l18714-51388h-4218zm32364 50621h3988v-50621h-3988v50621zm10431-27305l24466-23316h-5292l-24543 23239 26537 27382h5139l-26307-27305zm57291-23316h-3989v50621h3989v-50621zm67031 0h-41033v3605h18484v47016h3988v-47016h18561v-3605z"/></g></svg>