<svg width="50" height="50" viewBox="0 0 50 50" fill="none" xmlns="http://www.w3.org/2000/svg">
<rect width="50" height="50" rx="2" fill="#1362E2"/>
<path fill-rule="evenodd" clip-rule="evenodd" d="M9.21631 2.89905C9.21631 1.29797 12.0781 0 15.6082 0C19.1382 0 22 1.29797 22 2.89905V3.52771C22 5.12891 19.1382 6.42688 15.6082 6.42688C12.0781 6.42688 9.21631 5.12891 9.21631 3.52771V2.89905ZM8.17334 11.2227C7.60767 11.297 7.01001 11.3369 6.39185 11.3369C2.86182 11.3369 0 10.0389 0 8.43774V7.80908C0 6.20801 2.86182 4.91003 6.39185 4.91003C7.01001 4.91003 7.60767 4.94995 8.17334 5.02429V11.2227ZM8.17334 14.4592C7.60767 14.5334 7.01001 14.5735 6.39185 14.5735C2.86182 14.5735 0 13.2755 0 11.6744V11.0457C0 10.8422 0.0463867 10.6437 0.134521 10.4519C0.738525 11.7682 3.31055 12.7572 6.39185 12.7572C7.01025 12.7572 7.60767 12.7167 8.17334 12.6425V14.4592ZM8.17334 16.0204V15.8792C7.60767 15.9534 7.01025 15.9939 6.39185 15.9939C3.31055 15.9939 0.738525 15.0049 0.134521 13.6886C0.0463867 13.8802 0 14.0789 0 14.2823V14.911C0 16.5122 2.86182 17.8102 6.39185 17.8102C7.0979 17.8102 7.77686 17.7581 8.41187 17.6622C8.25439 17.3403 8.17334 17.0007 8.17334 16.649V16.0204ZM15.6082 7.84717C12.5269 7.84717 9.95483 6.85815 9.35083 5.54187C9.2627 5.73352 9.21631 5.93213 9.21631 6.13562V6.7644C9.21631 8.36548 12.0781 9.66345 15.6082 9.66345C19.1382 9.66345 22 8.36548 22 6.7644V6.13562C22 5.93213 21.9536 5.73352 21.8657 5.54187C21.2615 6.85815 18.6897 7.84717 15.6082 7.84717ZM9.35083 8.77856C9.95483 10.0948 12.5269 11.0839 15.6082 11.0839C18.6897 11.0839 21.2615 10.0948 21.8657 8.77856C21.9536 8.97021 22 9.16882 22 9.37231V10.0011C22 11.6023 19.1382 12.9001 15.6082 12.9001C12.0781 12.9001 9.21631 11.6023 9.21631 10.0011V9.37231C9.21631 9.16882 9.2627 8.97021 9.35083 8.77856ZM15.6082 14.4952C12.5269 14.4952 9.95483 13.5062 9.35083 12.1899C9.2627 12.3817 9.21631 12.5802 9.21631 12.7837V13.4125C9.21631 15.0135 12.0781 16.3115 15.6082 16.3115C19.1382 16.3115 22 15.0135 22 13.4125V12.7837C22 12.5802 21.9536 12.3816 21.8657 12.1899C21.2615 13.5061 18.6897 14.4952 15.6082 14.4952ZM9.35083 15.4265C9.95483 16.7428 12.5269 17.7318 15.6082 17.7318C18.6897 17.7318 21.2615 16.7428 21.8657 15.4265C21.9536 15.6182 22 15.8168 22 16.0203V16.649C22 18.2501 19.1382 19.5481 15.6082 19.5481C12.0781 19.5481 9.21631 18.2501 9.21631 16.649V16.0203C9.21631 15.8169 9.2627 15.6183 9.35083 15.4265Z" transform="translate(14 15)" fill="white"/>
</svg>
