<svg width="50" height="50" viewBox="0 0 50 50" fill="none" xmlns="http://www.w3.org/2000/svg">
<rect width="50" height="50" rx="2" fill="#1362E2"/>
<path d="M20.5538 4.44145C21.4569 3.23267 21.9974 1.97766 22 1.08106C21.9989 0.790706 21.9407 0.563804 21.8299 0.394778C21.8182 0.374108 21.7863 0.320007 21.73 0.266696C21.674 0.211121 21.6236 0.181428 21.6127 0.175425C21.4354 0.057085 21.2075 0 20.917 0C20.0227 0.0015098 18.7673 0.54166 17.5582 1.44618C16.5808 2.17753 15.6034 3.20751 14.2504 4.63377C14.0208 4.87566 13.7793 5.12999 13.5239 5.39669L10.9031 4.61123L10.911 4.60372C11.0199 4.49364 11.0819 4.34227 11.0804 4.19352C11.0819 4.0365 11.0184 3.88512 10.9091 3.7762L10.4358 3.30216C10.3265 3.19209 10.1755 3.129 10.0193 3.129C9.86148 3.129 9.71424 3.18986 9.60417 3.30104L8.89611 4.0095L8.52121 3.89756C8.60198 3.795 8.64667 3.66692 8.64516 3.54071C8.64667 3.38142 8.58505 3.23307 8.47426 3.12299L7.99871 2.64744C7.89015 2.53852 7.73989 2.47615 7.58215 2.47615C7.42513 2.47615 7.27825 2.53741 7.16932 2.6482L6.5195 3.29766L3.85477 2.49944C3.79506 2.48179 3.73194 2.47241 3.66432 2.47241C3.47502 2.47468 3.29959 2.54492 3.17151 2.67189L2.23468 3.60908C2.12835 3.71538 2.06864 3.85924 2.06979 3.99559C2.06641 4.19654 2.1776 4.3821 2.35564 4.4775L7.95931 7.60801C7.98674 7.6234 8.066 7.68203 8.0953 7.71132L9.69285 9.30852C8.19858 10.8828 6.86733 12.4075 5.82988 13.7338C5.73296 13.8571 5.6413 13.9772 5.55114 14.0963L1.216 13.7027C1.19497 13.7 1.17128 13.6981 1.14122 13.6981C0.942506 13.7023 0.748316 13.7808 0.604094 13.9201L0.167222 14.3566C0.0594152 14.4622 -0.00144414 14.6049 6.56635e-05 14.7428C-0.00331342 14.9531 0.124013 15.1477 0.315219 15.233L3.36495 16.6814C3.39122 16.6945 3.4596 16.743 3.48178 16.7652L3.73496 17.0165C3.65569 17.2396 3.6155 17.433 3.61324 17.6028C3.61248 17.8301 3.68574 18.0246 3.82587 18.1648L3.83676 18.1742L3.83974 18.1764C3.98361 18.3158 4.16992 18.3868 4.40056 18.3868C4.56661 18.3842 4.75817 18.3447 4.98205 18.2659L5.23897 18.5224C5.25889 18.5434 5.30659 18.6103 5.31899 18.637L6.76441 21.68C6.8527 21.8742 7.04311 22 7.25046 22H7.25344C7.39694 22 7.53405 21.9425 7.63884 21.8374L8.08621 21.3885C8.21878 21.2488 8.29693 21.0561 8.29992 20.8529C8.29992 20.8281 8.2988 20.8089 8.29805 20.7984L7.90327 16.4474C8.02197 16.358 8.14218 16.266 8.26573 16.1699C9.59396 15.1309 11.119 13.7985 12.6903 12.3064L14.289 13.9067C14.3149 13.9314 14.3754 14.0107 14.393 14.0438L17.5175 19.6373C17.6129 19.818 17.7966 19.9296 18.0002 19.9296C18.1456 19.9296 18.2838 19.8721 18.3898 19.7654L19.3333 18.8225C19.4558 18.6945 19.5245 18.5205 19.5264 18.3305C19.5264 18.2666 19.5174 18.2047 19.5009 18.1464L18.7027 15.481L19.3521 14.8304C19.4614 14.7218 19.5234 14.5708 19.5234 14.4157C19.5234 14.2598 19.4629 14.1133 19.3529 14.0017L18.8766 13.5258C18.7677 13.4165 18.617 13.3541 18.4619 13.3541C18.3304 13.3541 18.202 13.3981 18.1017 13.4774L17.9901 13.104L18.6989 12.3952C18.8078 12.2858 18.8698 12.1348 18.8698 11.9793C18.8698 11.8227 18.8093 11.6759 18.6989 11.5658L18.2248 11.0917C18.1155 10.9809 17.9638 10.9181 17.8079 10.9181C17.6512 10.9181 17.4995 10.9816 17.3924 11.0909L17.3875 11.0954L16.6024 8.47503C16.8736 8.2166 17.1309 7.97054 17.377 7.73879C18.7982 6.39021 19.8244 5.41657 20.5538 4.44145Z" transform="translate(13 15)" fill="white"/>
</svg>
