<svg width="50" height="50" viewBox="0 0 50 50" fill="none" xmlns="http://www.w3.org/2000/svg">
<rect width="50" height="50" rx="2" fill="#1362E2"/>
<path d="M20.1666 2.75004H15.5833V1.83334C15.5833 0.822248 14.7611 0 13.75 0H8.24998C7.23889 0 6.41664 0.822205 6.41664 1.83334V2.74999H1.83334C0.822205 2.75004 0 3.57224 0 4.58334V7.33333C0 8.34447 0.822205 9.16668 1.83334 9.16668H9.16668V8.70833C9.16668 8.45499 9.37168 8.24998 9.62502 8.24998H12.375C12.6284 8.24998 12.8334 8.45499 12.8334 8.70833V9.16668H20.1667C21.1778 9.16668 22 8.34447 22 7.33333V4.58334C22 3.57224 21.1778 2.75004 20.1666 2.75004ZM13.75 2.75004H8.24998V1.83334H13.75V2.75004Z" transform="translate(14 15)" fill="white"/>
<path d="M21.7457 0.0484045C21.5895 -0.029025 21.4029 -0.011107 21.265 0.0936076C20.9391 0.340248 20.5596 0.470486 20.1666 0.470486H12.8333V1.84548C12.8333 2.09883 12.6283 2.30383 12.375 2.30383H9.62498C9.37164 2.30383 9.16663 2.09883 9.16663 1.84548V0.470486H1.83334C1.44035 0.470486 1.06081 0.340248 0.734936 0.0936076C0.59662 -0.0120094 0.410437 -0.0299274 0.254203 0.0484045C0.0984842 0.125877 0 0.284731 0 0.458883V6.88717C0 7.89826 0.822205 8.72051 1.83334 8.72051H20.1667C21.1778 8.72051 22 7.89831 22 6.88717V0.458883C22 0.284731 21.9015 0.125877 21.7457 0.0484045Z" transform="translate(14 24.6128)" fill="white"/>
</svg>
