<svg width="50" height="50" viewBox="0 0 50 50" fill="none" xmlns="http://www.w3.org/2000/svg">
<rect width="50" height="50" rx="2" fill="#1362E2"/>
<path d="M20.4409 1.45319C19.4013 0.484259 17.9651 0 16.1316 0C15.6242 0 15.1063 0.0839797 14.5785 0.251857C14.0505 0.419858 13.5594 0.646513 13.1055 0.931659C12.6511 1.21672 12.2606 1.48442 11.933 1.73435C11.6057 1.98436 11.2946 2.25005 11 2.53122C10.7053 2.25005 10.3943 1.98436 10.067 1.73435C9.73951 1.48442 9.34881 1.21689 8.89447 0.931659C8.44022 0.64639 7.94911 0.419899 7.42124 0.251857C6.89341 0.0840207 6.37565 0 5.86824 0C4.03484 0 2.59855 0.484382 1.55915 1.45319C0.519744 2.42191 0 3.76559 0 5.48434C0 6.0078 0.0963205 6.54698 0.288575 7.10147C0.480829 7.65616 0.699915 8.12888 0.945403 8.51944C1.19085 8.90995 1.46919 9.29093 1.78021 9.66203C2.09123 10.0332 2.31853 10.2888 2.46159 10.4295C2.60478 10.57 2.71736 10.6717 2.79919 10.7341L10.4598 17.7889C10.6072 17.9296 10.7872 18 11 18C11.2127 18 11.3929 17.9296 11.5402 17.7891L19.1886 10.7577C21.0629 8.96881 22 7.21093 22 5.48434C22 3.76559 21.4802 2.42191 20.4409 1.45319Z" transform="translate(14 17)" fill="white"/>
</svg>
