<svg width="50" height="50" viewBox="0 0 50 50" fill="none" xmlns="http://www.w3.org/2000/svg">
<rect width="50" height="50" rx="2" fill="#1362E2"/>
<path d="M21.6745 18.9499C21.4704 18.77 21.1976 18.6863 20.9272 18.7202C19.9192 18.8474 18.3274 18.9935 16.7357 18.9219C15.6464 18.8716 14.6573 18.6568 13.7219 18.3608L10.3773 8.78597C13.5647 7.75913 16.236 7.34558 17.7316 7.1821C18.0435 7.14776 18.3163 6.963 18.4643 6.6873C18.6123 6.41161 18.6143 6.08077 18.4697 5.80314C16.4319 1.87908 11.941 -0.186702 7.60919 0.86481L7.5289 0.635064C7.44571 0.397579 7.27207 0.202658 7.04619 0.0938305C6.81983 -0.0149966 6.55961 -0.0299905 6.32164 0.0532018L6.30617 0.0585222C5.81233 0.231194 5.55163 0.771461 5.7243 1.26578L5.80411 1.49456C1.76977 3.36203 -0.457557 7.75332 0.369528 12.0808C0.429021 12.3913 0.638936 12.6515 0.928658 12.7753C1.21935 12.8992 1.55212 12.8706 1.81669 12.6984C3.01088 11.9221 5.2237 10.6597 8.57122 9.41475L11.3833 17.467C9.111 16.504 6.93736 15.496 4.06675 15.9337C2.23216 16.2133 0.785006 17.6576 0.237969 18.2791C0.086578 18.4527 0 18.6747 0 18.905V20.962C0 21.4854 0.428537 21.9095 0.951874 21.9095H21.0476C21.571 21.9095 22 21.4854 22 20.962V19.6605C21.9985 19.3886 21.8786 19.1299 21.6745 18.9499Z" transform="translate(14 14)" fill="white"/>
</svg>
